<svg width="50" height="50" viewBox="0 0 50 50" fill="none" xmlns="http://www.w3.org/2000/svg">
<path d="M16.4722 22.9862C15.4448 22.9896 14.4356 23.2575 13.5417 23.7639C14.8002 20.5063 16.8876 17.6338 19.5972 15.4306C19.7523 15.3029 19.8806 15.146 19.975 14.9687C20.0694 14.7914 20.1279 14.5973 20.1473 14.3974C20.1666 14.1975 20.1464 13.9957 20.0878 13.8036C20.0291 13.6115 19.9332 13.4329 19.8056 13.2778C19.6779 13.1228 19.5209 12.9944 19.3436 12.9001C19.1664 12.8057 18.9722 12.7472 18.7723 12.7278C18.5724 12.7085 18.3707 12.7287 18.1786 12.7873C17.9865 12.8459 17.8078 12.9418 17.6528 13.0695C12.0972 17.5834 9.62501 23.8334 9.62501 27.7084C9.63458 29.0785 10.0429 30.4162 10.8001 31.5582C11.5572 32.7001 12.6305 33.5969 13.8889 34.1389C14.7033 34.5335 15.5951 34.7422 16.5 34.7501C17.2965 34.7888 18.0925 34.6653 18.8399 34.3872C19.5872 34.1091 20.2703 33.6821 20.8476 33.1321C21.425 32.5821 21.8847 31.9205 22.1988 31.1876C22.5129 30.4546 22.6748 29.6655 22.6748 28.8681C22.6748 28.0707 22.5129 27.2816 22.1988 26.5486C21.8847 25.8157 21.425 25.1542 20.8476 24.6042C20.2703 24.0542 19.5872 23.6272 18.8399 23.349C18.0925 23.0709 17.2965 22.9475 16.5 22.9862H16.4722Z" fill="#EF7C6A"/>
<path d="M31.9449 22.986C30.9173 22.9882 29.9078 23.2562 29.0143 23.7638C30.2724 20.5096 32.3543 17.638 35.056 15.4305C35.2251 15.3086 35.3675 15.1534 35.4743 14.9744C35.5812 14.7954 35.6503 14.5965 35.6774 14.3898C35.7046 14.1831 35.6891 13.9731 35.632 13.7726C35.5749 13.5721 35.4773 13.3854 35.3454 13.224C35.2134 13.0627 35.0499 12.93 34.8647 12.8342C34.6796 12.7384 34.4768 12.6815 34.2688 12.667C34.0609 12.6525 33.8522 12.6808 33.6555 12.7499C33.4589 12.8191 33.2785 12.9278 33.1254 13.0694C27.5699 17.5833 25.0977 23.8333 25.0977 27.7083C25.1042 29.0629 25.5006 30.3869 26.2395 31.5223C26.9784 32.6577 28.0284 33.5564 29.2643 34.111C30.0993 34.5171 31.0164 34.7262 31.9449 34.7221C32.7414 34.7609 33.5374 34.6374 34.2847 34.3593C35.0321 34.0812 35.7151 33.6542 36.2925 33.1042C36.8699 32.5542 37.3296 31.8926 37.6436 31.1597C37.9577 30.4267 38.1197 29.6376 38.1197 28.8402C38.1197 28.0428 37.9577 27.2537 37.6436 26.5207C37.3296 25.7878 36.8699 25.1262 36.2925 24.5762C35.7151 24.0262 35.0321 23.5992 34.2847 23.3211C33.5374 23.043 32.7414 22.9195 31.9449 22.9583V22.986Z" fill="#EF7C6A"/>
</svg>
